<?xml version="1.0" encoding="UTF-8" standalone="no"?>
<svg
   xmlns:dc="http://purl.org/dc/elements/1.1/"
   xmlns:cc="http://creativecommons.org/ns#"
   xmlns:rdf="http://www.w3.org/1999/02/22-rdf-syntax-ns#"
   xmlns:svg="http://www.w3.org/2000/svg"
   xmlns="http://www.w3.org/2000/svg"
   width="268"
   height="131"
   viewBox="0 0 56279.999 14016.999"
   version="1.1"
   id="svg12">
  <metadata
     id="metadata18">
    <rdf:RDF>
      <cc:Work
         rdf:about="">
        <dc:format>image/svg+xml</dc:format>
        <dc:type
           rdf:resource="http://purl.org/dc/dcmitype/StillImage" />
        <dc:title>DVD logo</dc:title>
      </cc:Work>
    </rdf:RDF>
  </metadata>
  <defs
     id="defs16" />
  <title
     id="title2">DVD logo</title>
  <path
     d="m 32086.501,-2290.0461 c 0,0 -3871.678,4767.2663 -3673.629,5071.2425 274.677,-303.9762 -1390.005,-5123.361 -1390.005,-5123.361 0,0 -347.362,-1013.3465 -1437.337,-4334.8266 H 21638.914 12060.998 4838.5413 l -721.2033,3118.0781 h 5436.9146 1289.9964 c 3497.553,0 5632.992,1445.7869 5036.59,4007.46761 C 15236.546,3237.8645 12183.827,4428.6947 8932.2153,4428.6947 H 7716.3113 L 9280.4206,-2391.1835 H 3844.6332 L 1536.7827,7572.6894 h 7718.5652 c 5806.8131,0 11315.5671,-3117.7948 12308.9111,-7124.13489 173.821,-736.41647 149.312,-2587.59871 -296.932,-3677.29181 0,-26.2 -25.637,-76.346 -50.146,-151.2835 -24.51,-26.2007 -50.146,-203.4022 50.146,-229.3205 48.456,-25.918 147.903,76.3461 147.903,100.8558 0,0 50.427,128.4647 98.883,229.039 l 4913.196,14174.7425 12509.496,-14428.573 5285.35,-25.9183 h 1289.994 c 3500.088,0 5659.757,1445.7878 5062.232,4007.46791 C 49929.238,3237.5828 46854.265,4428.413 43601.807,4428.413 h -1240.974 l 1587.491,-6819.5965 h -5433.536 l -2309.54,9963.8729 h 7718.566 c 5806.533,0 11365.428,-3117.7948 12284.121,-7124.13489 942.916,-4007.46761 -3127.376,-7125.54571 -8984.052,-7125.54571 h -5111.25 -6402.648 c -3052.154,3676.1651 -3623.484,4386.9451 -3623.484,4386.9451 z"
     id="path4"
     style="stroke-width:281.72000122;fill:#ffffff" />
  <path
     d="M 26601.131,10946.006 C 11911.404,10946.006 0,12670.133 0,14800.782 c 0,2129.24 11911.404,3853.367 26601.131,3853.367 14716.777,0 26629.305,-1724.127 26629.305,-3853.367 0.411,-2130.649 -11912.249,-3854.776 -26629.305,-3854.776 z m -942.634,5224.217 c -3375.006,0 -6079.52,-583.725 -6079.52,-1294.505 0,-710.779 2704.232,-1293.094 6079.52,-1293.094 3349.089,0 6056.417,582.033 6056.417,1293.094 0,710.78 -2707.328,1294.505 -6056.417,1294.505 z"
     id="path6"
     style="stroke-width:281.72000122;fill:#ffffff" />
  <polygon
     style="fill:#ffffff"
     points="178.286,102.226 179.49,102.226 180.445,94.635 182.843,94.635 182.843,93.653 177.098,93.653 176.859,94.635 179.251,94.635 "
     id="polygon8"
     transform="matrix(281.72003,0,0,281.72003,-1408.6001,-8021.9223)" />
  <polygon
     style="fill:#ffffff"
     points="191.453,93.653 190.504,93.653 187.384,99.534 185.968,93.653 185.013,93.653 182.36,102.226 183.337,102.226 185.475,95.617 186.917,102.226 190.276,95.617 190.504,102.226 191.453,102.226 "
     id="polygon10"
     transform="matrix(281.72003,0,0,281.72003,-1408.6001,-8021.9223)" />
</svg>
